<svg width="640" height="512" viewBox="0 0 640 512" fill="none" xmlns="http://www.w3.org/2000/svg">
<path d="M496 224C416.37 224 352 288.38 352 368C352 447.62 416.38 512 496 512C575.62 512 640 447.62 640 368C640 288.38 575.6 224 496 224ZM544 384H489.75C484.4 384 480 379.6 480 374.3V304C480 295.164 487.164 288 496 288C504.838 288 512 295.164 512 304V352H544C552.838 352 560 359.164 560 367.1C560 375.036 552.8 384 544 384ZM224 256C294.7 256 352 198.69 352 128C352 57.31 294.7 0 224 0C153.3 0 96 57.31 96 128C96 198.69 153.3 256 224 256ZM320 368C320 348.7 323.221 330.18 328.961 312.8C311.9 307.2 293.6 304 274.7 304H173.3C77.61 304 0 381.7 0 477.4C0 496.5 15.52 512 34.66 512H395C349.7 480.2 320 427.6 320 368Z" fill="#888888"/>
</svg>
